HIERARCHY
ROOT Hips
{
    OFFSET 0.0 0.0 0.0
    CHANNELS 6 Xposition Yposition Zposition Zrotation Xrotation Yrotation
    JOINT LeftHipJoint
    {
        OFFSET 0.1 0.0 0.0
        CHANNELS 3 Zrotation Xrotation Yrotation
        JOINT LeftUpLeg
        {
            OFFSET 116.73814260710044 0.0 0.0
            CHANNELS 3 Zrotation Xrotation Yrotation
            JOINT LeftLeg
            {
                OFFSET 0.0 0.0 -387.5617915844068
                CHANNELS 3 Zrotation Xrotation Yrotation
                JOINT LeftFoot
                {
                    OFFSET 0.0 0.0 -392.95599440547414
                    CHANNELS 3 Zrotation Xrotation Yrotation
                    End Site
                    {
                        OFFSET 0.0 -0.1 0.0
                    }
                }
            }
        }
    }
    JOINT LowerBack
    {
        OFFSET 0.0 0.0 0.1
        CHANNELS 3 Zrotation Xrotation Yrotation
        JOINT Spine
        {
            OFFSET 0.0 0.0 218.74120232316127
            CHANNELS 3 Zrotation Xrotation Yrotation
            JOINT Spine1
            {
                OFFSET 0.0 0.0 254.33520999042574
                CHANNELS 3 Zrotation Xrotation Yrotation
                JOINT LeftShoulder
                {
                    OFFSET 0.1 0.0 0.0
                    CHANNELS 3 Zrotation Xrotation Yrotation
                    JOINT LeftArm
                    {
                        OFFSET 143.3409676092171 0.0 0.0
                        CHANNELS 3 Zrotation Xrotation Yrotation
                        JOINT LeftForeArm
                        {
                            OFFSET 254.1992786440905 0.0 0.0
                            CHANNELS 3 Zrotation Xrotation Yrotation
                            JOINT LeftHand
                            {
                                OFFSET 242.8802247690625 0.0 0.0
                                CHANNELS 3 Zrotation Xrotation Yrotation
                                End Site
                                {
                                    OFFSET 0.1 0.0 0.0
                                }
                            }
                        }
                    }
                }
                JOINT Neck
                {
                    OFFSET 0.0 0.0 0.1
                    CHANNELS 3 Zrotation Xrotation Yrotation
                    JOINT Neck1
                    {
                        OFFSET 0.0 0.0 108.22645231778321
                        CHANNELS 3 Zrotation Xrotation Yrotation
                        End Site
                        {
                            OFFSET 0.0 0.0 115.25759758907313
                        }
                    }
                }
                JOINT RightShoulder
                {
                    OFFSET -0.1 0.0 0.0
                    CHANNELS 3 Zrotation Xrotation Yrotation
                    JOINT RightArm
                    {
                        OFFSET -143.3409676092171 0.0 0.0
                        CHANNELS 3 Zrotation Xrotation Yrotation
                        JOINT RightForeArm
                        {
                            OFFSET -254.1992786440905 0.0 0.0
                            CHANNELS 3 Zrotation Xrotation Yrotation
                            JOINT RightHand
                            {
                                OFFSET -242.8802247690625 0.0 0.0
                                CHANNELS 3 Zrotation Xrotation Yrotation
                                End Site
                                {
                                    OFFSET -0.1 0.0 0.0
                                }
                            }
                        }
                    }
                }
            }
        }
    }
    JOINT RightHipJoint
    {
        OFFSET -0.1 0.0 0.0
        CHANNELS 3 Zrotation Xrotation Yrotation
        JOINT RightUpLeg
        {
            OFFSET -116.73814260710044 0.0 0.0
            CHANNELS 3 Zrotation Xrotation Yrotation
            JOINT RightLeg
            {
                OFFSET 0.0 0.0 -387.5617915844068
                CHANNELS 3 Zrotation Xrotation Yrotation
                JOINT RightFoot
                {
                    OFFSET 0.0 0.0 -392.95599440547414
                    CHANNELS 3 Zrotation Xrotation Yrotation
                    End Site
                    {
                        OFFSET 0.0 -0.1 0.0
                    }
                }
            }
        }
    }
}
MOTION
Frames: 11
Frame Time: 0.03333333333333333
0.0 0.0 810.6283010280306 27.351886136393876 5.434595265731802 4.8675444571402116 0.0 0.0 1.987846675914698e-16 -0.8587915645354587 -20.851775755934185 -4.475289495391311 -0.7651652548713005 20.351887907143947 1.442348342874273 -2.758691436281349e-33 -7.951386703658791e-16 -3.9756933518293955e-16 0.0 0.0 1.987846675914698e-16 -0.11225871445917543 -2.846720558774349 -1.4798837893529784 -0.514167678014396 7.9044800351233595e-16 1.0471767423739067e-15 -8.620910738379216e-34 -1.987846675914698e-16 -4.969616689786745e-16 -39.236539723938414 9.775708858508072 76.51668372310503 -26.436919166414715 -3.2781067900404758e-15 4.6791665724142856e-17 0.0 0.0 -2.8326815131784447e-15 -8.620910738379216e-34 -1.987846675914698e-16 -4.969616689786745e-16 -3.3117229519962494 -3.8459798046565274 0.5941082113505384 -8.620910738379216e-34 -1.987846675914698e-16 -4.969616689786745e-16 23.402360063383902 12.732166657026431 -71.83246725860091 41.44980380353492 -7.075023039295147e-15 -7.236638738670901e-16 6.3611093629270335e-15 -8.827812596100317e-32 -1.5902773407317584e-15 0.0 0.0 1.987846675914698e-16 -0.5955000080305889 -14.752505420814508 -2.690793188028903 -0.11520190665382647 17.916293376362187 -0.7919309828178978 0.0 0.0 -3.975693351829396e-16
0.0 0.0 810.6283010280306 27.396439804598398 5.3943460383052395 4.763756963261982 0.0 0.0 -3.975693351829396e-16 -0.8219946263444663 -20.945844058998908 -4.342146908067937 -0.7613305400681594 20.440170739215496 1.6072458485507406 0.0 0.0 0.0 0.0 0.0 -3.975693351829396e-16 -0.10708862553099689 -2.8510516031893705 -1.4746862318091887 -0.36820251336595666 -2.9657864101519864e-16 -4.979171962122947e-16 0.0 0.0 2.981770013872047e-16 -39.02159532792831 10.036729444381669 76.60207968101997 -26.235517223622217 8.180172200050776e-15 -7.074616683827597e-15 0.0 0.0 1.7890620083232284e-15 0.0 0.0 2.981770013872047e-16 -3.349976992834238 -3.825007248081029 0.7257637985056606 0.0 0.0 2.981770013872047e-16 23.346445484763745 12.775128624518434 -71.81908890543036 41.995190253190714 1.049743978170949e-14 9.598037281912008e-15 0.0 0.0 1.5902773407317584e-15 0.0 0.0 -3.975693351829396e-16 -0.5768539901880755 -14.991629843062771 -2.471152766658566 -0.0808077201747758 18.257120017467606 -0.7876509220709941 0.0 0.0 -3.975693351829396e-16
0.0 0.0 810.6283010280306 27.418857638871593 5.211369922553352 4.709172029490825 0.0 0.0 -1.987846675914698e-16 -0.8048921182610501 -20.90309234111171 -4.258178193605623 -0.7516948855226316 20.578553040282817 1.7802671559544916 0.0 0.0 -1.987846675914698e-16 0.0 0.0 -1.987846675914698e-16 -0.1076442949530785 -2.9199620058911835 -1.5364114805038263 -0.13687876252247339 1.9884388746383054e-16 -4.9458684698072274e-17 0.0 0.0 -1.987846675914698e-16 -39.169685469507854 10.433603121984522 76.72150898475346 -25.90842588878771 8.021163960442654e-16 -3.4870590424739195e-15 -3.1724951517235514e-32 3.1805546814635168e-15 1.1430118386509513e-15 0.0 0.0 -1.987846675914698e-16 -3.569676314495844 -3.71828325897802 0.8192866583866869 0.0 0.0 -1.987846675914698e-16 23.63550170934671 12.74940179606404 -71.77440066706096 42.2949947247054 4.759874542442073e-16 1.0046527597194815e-14 0.0 0.0 -1.5902773407317588e-15 0.0 0.0 -1.987846675914698e-16 -0.5728884055170665 -15.161713649878092 -2.2841977242481906 -0.03307083308165384 18.733479728812828 -0.7690581215845405 0.0 0.0 0.0
0.0 0.0 810.6283010280306 27.49479515068101 5.12347323314211 4.676690561434319 -1.3793457181406746e-33 -7.951386703658792e-16 -1.987846675914698e-16 -0.8139924431130932 -20.95308158660709 -4.195947881266045 -0.7237394253541989 20.658416464970188 1.9376213092882772 0.0 0.0 1.987846675914698e-16 -1.3793457181406746e-33 -7.951386703658792e-16 -1.987846675914698e-16 -0.11283771139830727 -3.0343946063458214 -1.6763986651429046 0.09650765476399371 5.966886194322485e-16 3.9706695196515923e-16 0.0 0.0 9.93923337957349e-17 -39.23431663723583 10.774622507401956 76.71970203335647 -25.852646854379547 1.422966980655823e-15 -6.1999094589422214e-15 0.0 0.0 2.559352595240174e-15 0.0 0.0 9.93923337957349e-17 -3.649001338206054 -3.6223557919179123 0.8987150758326793 0.0 0.0 9.93923337957349e-17 23.40835911798211 12.36987075805305 -71.54217794551455 42.82013683688347 -2.322061845201578e-15 -5.922139910047468e-15 0.0 0.0 3.1805546814635168e-15 -1.3793457181406746e-33 -7.951386703658792e-16 -1.987846675914698e-16 -0.5830259222658714 -15.291899424085788 -2.0534550293391627 0.05315820457081939 19.104458414373138 -0.9835380606891811 0.0 0.0 0.0
0.0 0.0 810.6283010280306 27.522280893525384 4.979169620555642 4.602671831654542 0.0 0.0 -1.987846675914698e-16 -0.817023469027044 -20.817765434203082 -4.023361707804408 -0.648401474565418 20.61111741618872 1.9969477397498874 0.0 0.0 0.0 0.0 0.0 -1.987846675914698e-16 -0.11785509934712939 -3.1350020477436624 -1.7955297766661062 0.23068505417807506 1.9628317411463081e-16 -1.2428018294731759e-15 0.0 0.0 -4.969616689786745e-17 -39.776253024095595 11.148230530213077 76.78194512597935 -25.70049134489614 1.7067437885488334e-16 -1.5049014003000212e-14 0.0 0.0 -3.0438902224943813e-16 0.0 0.0 -4.969616689786745e-17 -3.6770241015428327 -3.515980162397528 1.0041065755336396 0.0 0.0 -4.969616689786745e-17 23.054675655749584 12.156168275585387 -71.29779830329963 43.39851971198096 5.8798080256783446e-15 1.4775860706762767e-14 0.0 0.0 -1.5902773407317584e-15 0.0 0.0 -1.987846675914698e-16 -0.5940334795322624 -15.407007466307002 -1.7942507194494024 0.15517038487725737 19.51206891759419 -1.105070294293567 0.0 0.0 3.975693351829396e-16
0.0 0.0 810.6283010280306 27.61582438504699 4.904912940126498 4.464518221613742 -2.4138550067461805e-33 -3.975693351829396e-16 -6.957463365701443e-16 -0.8008545618331456 -20.855538977425166 -3.66925370806944 -0.539044960433163 20.80151181706287 1.879954632153573 0.0 0.0 1.987846675914698e-16 -2.4138550067461805e-33 -3.975693351829396e-16 -6.957463365701443e-16 -0.11781508306951952 -3.20317406363479 -1.9325078895559173 0.30417139911418295 -2.0023501207110058e-16 -5.461282574043956e-16 0.0 0.0 4.969616689786745e-17 -39.531980585771144 11.238578554365217 76.91022684916737 -25.302207157401917 1.147597549551354e-15 -1.237372152942189e-14 0.0 0.0 -4.659015646675073e-16 0.0 0.0 4.969616689786745e-17 -3.6002890931718237 -3.5796639283289213 1.3500022439743111 0.0 0.0 4.969616689786745e-17 22.40128793003522 12.052322687804514 -70.84291812154748 44.23838265543535 -1.767884403071777e-14 7.185533013048949e-15 0.0 0.0 0.0 -2.4138550067461805e-33 -3.975693351829396e-16 -6.957463365701443e-16 -0.5883774993554824 -15.587717904411727 -1.3563186897618265 0.30101962749237354 19.9445283698938 -1.3721475133732406 0.0 0.0 -3.975693351829396e-16
0.0 0.0 810.6283010280306 27.714713717225425 4.789599485061735 4.327198599948654 0.0 0.0 1.987846675914698e-16 -0.777784864480974 -20.884200733146653 -3.306088080029659 -0.432665892441251 21.0702973104124 1.7165200532047857 0.0 0.0 -1.987846675914698e-16 0.0 0.0 1.987846675914698e-16 -0.11758710542918292 -3.2960752560336752 -2.0310429165056383 0.29465430332159676 3.978874853410997e-16 1.2321772016990947e-16 0.0 0.0 -7.454425034680117e-17 -39.15647473829866 11.487920576788257 77.1253104920666 -25.077284465352534 -2.9320748259420816e-15 -1.4666665612767687e-15 0.0 0.0 -4.348414603563402e-17 0.0 0.0 -7.454425034680117e-17 -3.4084789939555 -3.606750967980103 1.6293591089264188 0.0 0.0 -7.454425034680117e-17 21.522638474347406 12.121204652311139 -70.57303629305487 45.055220665116074 -1.5190052088164918e-14 1.3187093721894004e-14 0.0 0.0 -1.5902773407317584e-15 0.0 0.0 1.987846675914698e-16 -0.5737196757695794 -15.66479326809683 -0.9678842899930001 0.4258227650468929 20.267554727873545 -1.5483997122294373 0.0 0.0 3.975693351829396e-16
0.0 0.0 810.6283010280306 27.74924316297958 4.846354449181404 4.220728049353931 0.0 0.0 9.93923337957349e-17 -0.750090282770336 -21.00568361877628 -3.0114849130304853 -0.3585905893932065 21.350760042343573 1.568481984419912 0.0 0.0 0.0 0.0 0.0 9.93923337957349e-17 -0.1170687844582035 -3.423441869471969 -2.1248788342911866 0.4242511180095279 -1.0141553351907122e-16 -5.462861110294031e-16 0.0 0.0 -1.987846675914698e-16 -38.42356871196703 11.682050455019558 77.20556116300544 -24.864727747651546 -4.120731606473019e-15 1.1305033909629962e-14 0.0 0.0 1.7890620083232284e-15 0.0 0.0 -1.987846675914698e-16 -3.3362317399533032 -3.672414638039928 1.9174789390448879 0.0 0.0 -1.987846675914698e-16 20.78774778293206 12.04364429980353 -70.10230343823612 45.63358907805056 4.629975625568705e-15 -5.3984225580753815e-15 0.0 0.0 -1.5902773407317584e-15 0.0 0.0 9.93923337957349e-17 -0.5608233154480384 -15.957206883923789 -0.5914341347556812 0.5428778960989114 20.593800758504774 -1.7376794261187984 0.0 0.0 -3.975693351829396e-16
0.0 0.0 810.6283010280306 27.57765297969227 4.876435343337556 4.0723341452701876 -1.3793457181406746e-33 -7.951386703658792e-16 -1.987846675914698e-16 -0.7138058004902363 -21.003094035882185 -2.7184426604149654 -0.2840927919652322 21.394965623477727 1.4570893768753048 0.0 0.0 -1.987846675914698e-16 -1.3793457181406746e-33 -7.951386703658792e-16 -1.987846675914698e-16 -0.11343572946057821 -3.4848161101691018 -2.1830198282402664 0.5171232911733137 0.0 0.0 0.0 0.0 1.2424041724466862e-16 -37.22048026640131 11.782579043730507 77.2133425061367 -24.773468680823594 -8.891784243766522e-16 -1.0778440526124286e-14 0.0 0.0 -2.5096564283423063e-15 0.0 0.0 1.2424041724466862e-16 -3.2436120490082785 -3.737715211295743 2.148554665625029 0.0 0.0 1.2424041724466862e-16 19.843449801135097 12.002032265321525 -69.51477719452502 46.42935657220184 4.224350689598822e-16 1.7122600940982014e-14 0.0 0.0 -3.1805546814635168e-15 -1.3793457181406746e-33 -7.951386703658792e-16 -1.987846675914698e-16 -0.5443825637154558 -16.254766959894116 -0.19983664642833496 0.661167382235201 20.787676422944042 -1.8156372497137312 -5.517382872562698e-33 -1.5902773407317582e-15 -3.9756933518293955e-16
0.0 0.0 810.6283010280306 27.412192830154297 4.997604314113555 4.000339537386595 0.0 0.0 -1.987846675914698e-16 -0.6931949303859978 -21.068924923239145 -2.5587228868104543 -0.24478654538839842 21.269297082152107 1.4072225373237395 0.0 0.0 -3.975693351829396e-16 0.0 0.0 -1.987846675914698e-16 -0.109996297520447 -3.4917848207435243 -2.2632031113296387 0.6214596665974322 -9.966038599594836e-17 -4.915640838021085e-17 0.0 0.0 1.4908850069360235e-16 -35.88931351155776 11.909858685296491 77.1665442393661 -24.60326770174772 7.0330432549198365e-15 -9.859881325869457e-15 0.0 0.0 3.0314661807699143e-15 0.0 0.0 1.4908850069360235e-16 -3.143787213384076 -3.7679482041031984 2.231299130757982 0.0 0.0 1.4908850069360235e-16 18.951792045358065 12.121490343218639 -68.83864189678233 47.736453222217364 -3.860886695926293e-15 -8.725646489357382e-15 0.0 0.0 0.0 0.0 0.0 -1.987846675914698e-16 -0.5359148411699489 -16.521992105558418 0.03165600007303244 0.7204810073339378 20.633620109495524 -1.8273986984873392 0.0 0.0 0.0
0.0 0.0 810.6283010280306 27.2525354462251 5.176678000094169 3.9081081164603484 0.0 0.0 -1.987846675914698e-16 -0.6623235152247401 -21.261174728098606 -2.3877965666443273 -0.21664963469463605 21.148061167684382 1.3799788700162985 0.0 0.0 -1.9878466759146977e-16 0.0 0.0 -1.987846675914698e-16 -0.10527337626724698 -3.5330942272349066 -2.2761736912787365 0.784750954075797 -1.984396774481846e-16 5.105631682810953e-17 0.0 0.0 4.969616689786745e-17 -34.45286643694957 12.06107748320198 76.99862658271616 -24.317930087030643 -1.172331028912591e-15 5.4411092351742435e-15 0.0 0.0 -2.0126947593636317e-15 0.0 0.0 4.969616689786745e-17 -3.140979394180998 -3.839550694027447 2.3260255671455963 0.0 0.0 4.969616689786745e-17 17.88610047833858 11.913764345197299 -67.90076625820618 49.68817953307383 -8.872210524070764e-15 1.1117663515872293e-14 0.0 0.0 -7.951386703658792e-16 0.0 0.0 -1.987846675914698e-16 -0.5187371157157059 -16.890016690641986 0.248894174566776 0.7572858923732735 20.434928655317705 -1.7611381610118504 0.0 0.0 0.0
